<?xml version="1.0" encoding="utf-8"?>
<!-- Generator: Adobe Illustrator 26.4.1, SVG Export Plug-In . SVG Version: 6.00 Build 0)  -->
<svg version="1.1" id="Layer_1" xmlns="http://www.w3.org/2000/svg" xmlns:xlink="http://www.w3.org/1999/xlink" x="0px" y="0px"
	 viewBox="0 0 148.1 47.5" style="enable-background:new 0 0 148.1 47.5;" xml:space="preserve">
<style type="text/css">
	.st0{fill:#231F20;}
	.st1{fill:#C7E20B;}
	.st2{fill:#040000;}
	.st3{fill:#0FB5CE;}
	.st4{fill:#FFFFFF;}
	.st5{fill:#C60076;}
	.st6{fill:#F7BC07;}
</style>
<path class="st0" d="M148.1,17.2v-5.7h-1v4.2h0l-2.6-4.2h-1.3v5.7h1v-4.4h0l2.7,4.4H148.1z M140,17.2l1.7-5.7h-1.1l-1.1,4.2h0
	l-1.2-4.2h-1l-1.2,4.2h0l-1.1-4.2h-1.1l1.7,5.7h1l1.3-4.2h0l1.3,4.2H140z M134,20.9c-0.3-0.1-0.6-0.1-0.9-0.1h-1.8v5.7h1v-2.3h0.8
	c0.3,0,0.6,0,0.8-0.1c0.3-0.1,0.5-0.2,0.7-0.3c0.2-0.1,0.4-0.3,0.5-0.5c0.1-0.2,0.2-0.5,0.2-0.8c0-0.3,0-0.5-0.2-0.8
	c-0.1-0.2-0.2-0.4-0.4-0.5C134.5,21.1,134.3,21,134,20.9z M133.9,21.8c0.1,0.1,0.2,0.1,0.3,0.2c0.1,0.1,0.1,0.2,0.1,0.4
	c0,0.2,0,0.3-0.1,0.4c-0.1,0.1-0.2,0.2-0.3,0.3c-0.1,0.1-0.3,0.1-0.4,0.1c-0.1,0-0.3,0-0.5,0h-0.7v-1.6h0.7c0.2,0,0.3,0,0.5,0
	S133.8,21.8,133.9,21.8z M132.3,15.6c0.2-0.4,0.2-0.8,0.2-1.2c0-0.5-0.1-0.9-0.2-1.2c-0.2-0.4-0.4-0.7-0.6-0.9
	c-0.3-0.3-0.6-0.5-1-0.6c-0.4-0.1-0.8-0.2-1.2-0.2c-0.4,0-0.8,0.1-1.2,0.2c-0.4,0.1-0.7,0.3-1,0.6c-0.3,0.3-0.5,0.6-0.6,0.9
	c-0.2,0.4-0.2,0.8-0.2,1.2c0,0.4,0.1,0.8,0.2,1.2c0.2,0.4,0.4,0.7,0.6,0.9c0.3,0.3,0.6,0.5,1,0.6c0.4,0.1,0.8,0.2,1.2,0.2
	c0.4,0,0.8-0.1,1.2-0.2c0.4-0.1,0.7-0.4,1-0.6C131.9,16.3,132.1,15.9,132.3,15.6z M131.4,14.4c0,0.3,0,0.6-0.1,0.8
	c-0.1,0.3-0.2,0.5-0.4,0.7c-0.2,0.2-0.4,0.3-0.6,0.4c-0.2,0.1-0.5,0.2-0.8,0.2c-0.3,0-0.5-0.1-0.8-0.2c-0.2-0.1-0.4-0.2-0.6-0.4
	c-0.2-0.2-0.3-0.4-0.4-0.7c-0.1-0.3-0.1-0.5-0.1-0.8c0-0.3,0-0.6,0.1-0.8c0.1-0.3,0.2-0.5,0.4-0.7c0.2-0.2,0.4-0.3,0.6-0.4
	c0.2-0.1,0.5-0.2,0.8-0.2c0.3,0,0.6,0.1,0.8,0.2c0.2,0.1,0.4,0.3,0.6,0.4c0.2,0.2,0.3,0.4,0.4,0.7C131.4,13.8,131.4,14.1,131.4,14.4
	z M123.8,12.4h1.7v-0.9H121v0.9h1.7v4.8h1V12.4z M122,20.8l-2.4,2.4h0v-2.4h-1v5.7h1v-2.8h0l2.5,2.8h1.4l-2.8-3l2.6-2.6H122z
	 M113.3,17.2h3.9v-0.9h-2.9v-1.6h2.6v-0.8h-2.6v-1.4h2.7v-0.9h-3.7V17.2z M116.7,20.8H113v5.7h3.9v-0.9H114V24h2.6v-0.8H114v-1.4
	h2.7V20.8z M116.2,30.1h-4.5V31h1.7v4.8h1V31h1.7V30.1z M111.5,14c0.1-0.2,0.2-0.5,0.2-0.8c0-0.3-0.1-0.5-0.2-0.8
	c-0.1-0.2-0.2-0.4-0.4-0.5c-0.2-0.1-0.4-0.2-0.7-0.3c-0.3-0.1-0.6-0.1-0.9-0.1h-1.8v5.7h1v-2.3h0.8c0.3,0,0.6,0,0.8-0.1
	c0.3-0.1,0.5-0.2,0.7-0.3C111.2,14.4,111.4,14.2,111.5,14z M110.6,13.2c0,0.2,0,0.3-0.1,0.4c-0.1,0.1-0.2,0.2-0.3,0.3
	c-0.1,0.1-0.2,0.1-0.4,0.1c-0.1,0-0.3,0-0.5,0h-0.7v-1.6h0.7c0.2,0,0.3,0,0.5,0c0.1,0,0.3,0.1,0.4,0.1c0.1,0.1,0.2,0.1,0.3,0.2
	C110.6,12.9,110.6,13,110.6,13.2z M107.6,21.6c-0.1,0.2-0.2,0.5-0.2,0.7c0,0.3,0,0.5,0.1,0.7c0.1,0.2,0.2,0.3,0.3,0.5
	c0.1,0.1,0.3,0.2,0.5,0.3c0.2,0.1,0.3,0.1,0.5,0.2c0.2,0.1,0.3,0.1,0.5,0.2c0.2,0.1,0.3,0.1,0.4,0.2c0.1,0.1,0.2,0.2,0.3,0.3
	c0.1,0.1,0.1,0.2,0.1,0.4c0,0.2,0,0.3-0.1,0.4c-0.1,0.1-0.1,0.2-0.2,0.3c-0.1,0.1-0.2,0.1-0.3,0.1c-0.1,0-0.2,0-0.4,0
	c-0.2,0-0.5-0.1-0.7-0.2c-0.2-0.1-0.4-0.3-0.6-0.5l-0.7,0.7c0.2,0.3,0.5,0.5,0.9,0.6c0.4,0.1,0.7,0.2,1.1,0.2c0.3,0,0.5,0,0.8-0.1
	c0.2-0.1,0.5-0.2,0.7-0.3c0.2-0.1,0.3-0.3,0.4-0.6c0.1-0.2,0.2-0.5,0.2-0.8c0-0.3-0.1-0.5-0.2-0.7c-0.1-0.2-0.2-0.3-0.4-0.5
	c-0.2-0.1-0.3-0.2-0.5-0.3c-0.2-0.1-0.4-0.1-0.6-0.2c-0.2,0-0.3-0.1-0.4-0.1c-0.1,0-0.2-0.1-0.3-0.2c-0.1-0.1-0.2-0.1-0.2-0.2
	c-0.1-0.1-0.1-0.2-0.1-0.3c0-0.1,0-0.3,0.1-0.4c0.1-0.1,0.1-0.2,0.2-0.2c0.1-0.1,0.2-0.1,0.3-0.1c0.1,0,0.2,0,0.4,0
	c0.2,0,0.4,0,0.6,0.1c0.2,0.1,0.3,0.2,0.5,0.3l0.7-0.7c-0.2-0.2-0.5-0.4-0.8-0.5c-0.3-0.1-0.6-0.2-0.9-0.2c-0.3,0-0.5,0-0.8,0.1
	c-0.2,0.1-0.5,0.2-0.7,0.3C107.9,21.2,107.7,21.4,107.6,21.6z M107.1,30.9c-0.1,0.2-0.2,0.5-0.2,0.7c0,0.3,0,0.5,0.1,0.7
	c0.1,0.2,0.2,0.3,0.3,0.5c0.1,0.1,0.3,0.2,0.5,0.3c0.2,0.1,0.3,0.1,0.5,0.2c0.2,0.1,0.3,0.1,0.5,0.2c0.2,0.1,0.3,0.1,0.4,0.2
	c0.1,0.1,0.2,0.2,0.3,0.3c0.1,0.1,0.1,0.2,0.1,0.4c0,0.2,0,0.3-0.1,0.4c-0.1,0.1-0.1,0.2-0.2,0.3c-0.1,0.1-0.2,0.1-0.3,0.1
	c-0.1,0-0.2,0-0.4,0c-0.2,0-0.5-0.1-0.7-0.2c-0.2-0.1-0.4-0.3-0.6-0.5l-0.7,0.7c0.2,0.3,0.5,0.5,0.9,0.6c0.4,0.1,0.7,0.2,1.1,0.2
	c0.3,0,0.5,0,0.8-0.1c0.3-0.1,0.5-0.2,0.7-0.3c0.2-0.1,0.3-0.3,0.4-0.6c0.1-0.2,0.2-0.5,0.2-0.8c0-0.3-0.1-0.5-0.2-0.7
	c-0.1-0.2-0.2-0.3-0.4-0.5c-0.2-0.1-0.3-0.2-0.5-0.3c-0.2-0.1-0.4-0.1-0.6-0.2c-0.2,0-0.3-0.1-0.4-0.1c-0.1,0-0.2-0.1-0.3-0.2
	c-0.1-0.1-0.2-0.1-0.2-0.2c-0.1-0.1-0.1-0.2-0.1-0.3c0-0.1,0-0.3,0.1-0.4c0.1-0.1,0.1-0.2,0.2-0.2c0.1-0.1,0.2-0.1,0.3-0.1
	c0.1,0,0.2,0,0.4,0c0.2,0,0.4,0,0.6,0.1c0.2,0.1,0.3,0.2,0.5,0.3l0.7-0.7c-0.2-0.2-0.5-0.4-0.8-0.5c-0.3-0.1-0.6-0.2-0.9-0.2
	c-0.3,0-0.5,0-0.8,0.1c-0.2,0.1-0.5,0.2-0.7,0.3C107.4,30.5,107.2,30.7,107.1,30.9z M105.2,17.2h1.1l-2.4-5.7H103l-2.5,5.7h1.1
	l0.5-1.3h2.5L105.2,17.2z M104.3,15.1h-1.8l0.9-2.3L104.3,15.1z M102.9,20.8l-2.5,5.7h1.1l0.5-1.3h2.5l0.5,1.3h1.2l-2.4-5.7H102.9z
	 M102.4,24.3l0.9-2.3l0.9,2.3H102.4z M98.9,35.8h1.2l-2.4-5.7h-0.9l-2.5,5.7h1.1l0.5-1.3h2.5L98.9,35.8z M98,33.6h-1.8l0.9-2.3
	L98,33.6z M96.7,22.6c-0.1-0.1-0.1-0.2-0.1-0.3c0-0.1,0-0.3,0.1-0.4c0.1-0.1,0.1-0.2,0.2-0.2c0.1-0.1,0.2-0.1,0.3-0.1
	c0.1,0,0.2,0,0.4,0c0.2,0,0.4,0,0.6,0.1c0.2,0.1,0.3,0.2,0.5,0.3l0.7-0.7c-0.2-0.2-0.5-0.4-0.8-0.5c-0.3-0.1-0.6-0.2-0.9-0.2
	c-0.3,0-0.5,0-0.8,0.1c-0.2,0.1-0.5,0.2-0.7,0.3c-0.2,0.1-0.4,0.3-0.5,0.5c-0.1,0.2-0.2,0.5-0.2,0.7c0,0.3,0,0.5,0.1,0.7
	c0.1,0.2,0.2,0.3,0.3,0.5c0.1,0.1,0.3,0.2,0.5,0.3c0.2,0.1,0.3,0.1,0.5,0.2c0.2,0.1,0.3,0.1,0.5,0.2c0.2,0.1,0.3,0.1,0.4,0.2
	c0.1,0.1,0.2,0.2,0.3,0.3c0.1,0.1,0.1,0.2,0.1,0.4c0,0.2,0,0.3-0.1,0.4c-0.1,0.1-0.1,0.2-0.2,0.3c-0.1,0.1-0.2,0.1-0.3,0.1
	c-0.1,0-0.2,0-0.4,0c-0.2,0-0.5-0.1-0.7-0.2c-0.2-0.1-0.4-0.3-0.6-0.5l-0.7,0.7c0.2,0.3,0.5,0.5,0.9,0.6c0.4,0.1,0.7,0.2,1.1,0.2
	c0.3,0,0.5,0,0.8-0.1c0.2-0.1,0.5-0.2,0.7-0.3c0.2-0.1,0.3-0.3,0.4-0.6c0.1-0.2,0.2-0.5,0.2-0.8c0-0.3-0.1-0.5-0.2-0.7
	c-0.1-0.2-0.2-0.3-0.4-0.5c-0.2-0.1-0.3-0.2-0.5-0.3c-0.2-0.1-0.4-0.1-0.6-0.2c-0.2,0-0.3-0.1-0.4-0.1c-0.1,0-0.2-0.1-0.3-0.2
	C96.8,22.8,96.7,22.7,96.7,22.6z M95.8,15.2c-0.1-0.3-0.1-0.5-0.1-0.8c0-0.3,0-0.6,0.1-0.8c0.1-0.3,0.2-0.5,0.4-0.7
	c0.2-0.2,0.4-0.3,0.6-0.4c0.2-0.1,0.5-0.2,0.8-0.2c0.2,0,0.5,0,0.7,0.1c0.2,0.1,0.4,0.2,0.6,0.4l0.8-0.6c-0.1-0.1-0.2-0.3-0.4-0.4
	c-0.2-0.1-0.3-0.2-0.5-0.3c-0.2-0.1-0.4-0.1-0.6-0.2c-0.2,0-0.4-0.1-0.6-0.1c-0.4,0-0.8,0.1-1.2,0.2c-0.4,0.1-0.7,0.3-1,0.6
	c-0.3,0.3-0.5,0.6-0.6,0.9c-0.2,0.4-0.2,0.8-0.2,1.2c0,0.4,0.1,0.8,0.2,1.2c0.1,0.4,0.4,0.7,0.6,0.9c0.3,0.3,0.6,0.5,1,0.6
	c0.4,0.1,0.8,0.2,1.2,0.2c0.5,0,0.9-0.1,1.3-0.3c0.4-0.2,0.7-0.4,0.9-0.7L99,15.8c-0.1,0.2-0.3,0.4-0.6,0.5
	c-0.2,0.1-0.5,0.2-0.8,0.2c-0.3,0-0.6-0.1-0.8-0.2c-0.2-0.1-0.4-0.2-0.6-0.4C96.1,15.7,95.9,15.5,95.8,15.2z M92.5,35.8h1.2
	l-2.4-5.7h-0.9l-2.5,5.7H89l0.5-1.3H92L92.5,35.8z M91.6,33.6h-1.8l0.9-2.3L91.6,33.6z M91,24.9c0.2-0.4,0.2-0.8,0.2-1.2
	c0-0.5-0.1-0.9-0.2-1.2c-0.2-0.4-0.4-0.7-0.6-0.9c-0.3-0.3-0.6-0.5-1-0.6c-0.4-0.1-0.8-0.2-1.2-0.2c-0.4,0-0.8,0.1-1.2,0.2
	c-0.4,0.1-0.7,0.3-1,0.6c-0.3,0.3-0.5,0.6-0.6,0.9c-0.2,0.4-0.2,0.8-0.2,1.2c0,0.4,0.1,0.8,0.2,1.2c0.2,0.4,0.4,0.7,0.6,0.9
	c0.3,0.3,0.6,0.5,1,0.6c0.4,0.1,0.8,0.2,1.2,0.2c0.4,0,0.8-0.1,1.2-0.2c0.4-0.1,0.7-0.4,1-0.6C90.6,25.5,90.8,25.2,91,24.9z
	 M90.1,23.7c0,0.3,0,0.6-0.1,0.8c-0.1,0.3-0.2,0.5-0.4,0.7c-0.2,0.2-0.4,0.3-0.6,0.4c-0.2,0.1-0.5,0.2-0.8,0.2
	c-0.3,0-0.6-0.1-0.8-0.2c-0.2-0.1-0.4-0.2-0.6-0.4c-0.2-0.2-0.3-0.4-0.4-0.7c-0.1-0.3-0.1-0.5-0.1-0.8c0-0.3,0-0.6,0.1-0.8
	c0.1-0.3,0.2-0.5,0.4-0.7c0.2-0.2,0.4-0.3,0.6-0.4c0.2-0.1,0.5-0.2,0.8-0.2c0.3,0,0.6,0.1,0.8,0.2c0.2,0.1,0.4,0.3,0.6,0.4
	c0.2,0.2,0.3,0.4,0.4,0.7C90.1,23.1,90.1,23.4,90.1,23.7z M87.7,12.4h2.6v-0.9h-3.6v5.7h1v-2.4h2.5V14h-2.5V12.4z M84.7,15.6
	c0.2-0.4,0.2-0.8,0.2-1.2c0-0.5-0.1-0.9-0.2-1.2c-0.2-0.4-0.4-0.7-0.6-0.9c-0.3-0.3-0.6-0.5-1-0.6c-0.4-0.1-0.8-0.2-1.2-0.2
	c-0.4,0-0.8,0.1-1.2,0.2c-0.4,0.1-0.7,0.3-1,0.6c-0.3,0.3-0.5,0.6-0.6,0.9c-0.2,0.4-0.2,0.8-0.2,1.2c0,0.4,0.1,0.8,0.2,1.2
	c0.2,0.4,0.4,0.7,0.6,0.9c0.3,0.3,0.6,0.5,1,0.6c0.4,0.1,0.8,0.2,1.2,0.2c0.4,0,0.8-0.1,1.2-0.2c0.4-0.1,0.7-0.4,1-0.6
	C84.3,16.3,84.5,15.9,84.7,15.6z M83.8,14.4c0,0.3,0,0.6-0.1,0.8c-0.1,0.3-0.2,0.5-0.4,0.7c-0.2,0.2-0.4,0.3-0.6,0.4
	c-0.2,0.1-0.5,0.2-0.8,0.2c-0.3,0-0.5-0.1-0.8-0.2c-0.2-0.1-0.4-0.2-0.6-0.4c-0.2-0.2-0.3-0.4-0.4-0.7c-0.1-0.3-0.1-0.5-0.1-0.8
	c0-0.3,0-0.6,0.1-0.8c0.1-0.3,0.2-0.5,0.4-0.7c0.2-0.2,0.4-0.3,0.6-0.4c0.2-0.1,0.5-0.2,0.8-0.2c0.3,0,0.6,0.1,0.8,0.2
	c0.2,0.1,0.4,0.3,0.6,0.4c0.2,0.2,0.3,0.4,0.4,0.7C83.8,13.8,83.8,14.1,83.8,14.4z M77.5,34.2c0.2-0.4,0.3-0.8,0.3-1.3
	c0-0.5-0.1-1-0.3-1.3c-0.2-0.4-0.4-0.7-0.7-0.9c-0.3-0.2-0.6-0.4-1-0.5c-0.4-0.1-0.7-0.1-1.1-0.1h-2v5.7h2c0.4,0,0.7-0.1,1.1-0.2
	c0.4-0.1,0.7-0.3,1-0.5C77.1,34.9,77.3,34.6,77.5,34.2z M76.7,32.9c0,0.4-0.1,0.7-0.2,0.9c-0.1,0.3-0.3,0.4-0.5,0.6
	c-0.2,0.1-0.4,0.3-0.7,0.3c-0.3,0.1-0.5,0.1-0.8,0.1h-0.8V31h0.8c0.3,0,0.5,0,0.8,0.1s0.5,0.2,0.7,0.3c0.2,0.1,0.4,0.3,0.5,0.6
	C76.6,32.2,76.7,32.5,76.7,32.9z M73.6,26.5h3.9v-0.9h-2.9V24h2.6v-0.8h-2.6v-1.4h2.7v-0.9h-3.7V26.5z M73.1,14.8l2.1-3.2h-1.2
	l-1.4,2.4l-1.4-2.4H70l2.1,3.2v2.5h1V14.8z M70.7,20.8l-1.1,1.9l-1.2-1.9h-1.2l1.8,2.6l-2,3h1.2l1.3-2.2l1.4,2.2h1.3l-2-3l1.7-2.7
	H70.7z M67.7,12.4h1.7v-0.9h-4.5v0.9h1.7v4.8h1V12.4z M65.5,20.8h-1v5.7h1V20.8z M62.5,17.2h1v-5.7h-1V17.2z M62.7,21.3
	c-0.2-0.2-0.5-0.4-0.8-0.5c-0.3-0.1-0.6-0.2-0.9-0.2c-0.3,0-0.5,0-0.8,0.1c-0.2,0.1-0.5,0.2-0.7,0.3c-0.2,0.1-0.4,0.3-0.5,0.5
	C59,21.8,59,22.1,59,22.4c0,0.3,0,0.5,0.1,0.7c0.1,0.2,0.2,0.3,0.3,0.5c0.1,0.1,0.3,0.2,0.5,0.3c0.2,0.1,0.3,0.1,0.5,0.2
	c0.2,0.1,0.3,0.1,0.5,0.2c0.2,0.1,0.3,0.1,0.4,0.2c0.1,0.1,0.2,0.2,0.3,0.3c0.1,0.1,0.1,0.2,0.1,0.4c0,0.2,0,0.3-0.1,0.4
	c-0.1,0.1-0.1,0.2-0.2,0.3c-0.1,0.1-0.2,0.1-0.3,0.1c-0.1,0-0.2,0-0.4,0c-0.2,0-0.5-0.1-0.7-0.2c-0.2-0.1-0.4-0.3-0.6-0.5l-0.7,0.7
	c0.2,0.3,0.5,0.5,0.9,0.6c0.4,0.1,0.7,0.2,1.1,0.2c0.3,0,0.5,0,0.8-0.1c0.2-0.1,0.5-0.2,0.7-0.3c0.2-0.1,0.3-0.3,0.4-0.6
	c0.1-0.2,0.2-0.5,0.2-0.8c0-0.3-0.1-0.5-0.2-0.7c-0.1-0.2-0.2-0.3-0.4-0.5c-0.2-0.1-0.3-0.2-0.5-0.3c-0.2-0.1-0.4-0.1-0.6-0.2
	c-0.2,0-0.3-0.1-0.4-0.1c-0.1,0-0.2-0.1-0.3-0.2c-0.1-0.1-0.2-0.1-0.2-0.2C60,22.5,60,22.4,60,22.3c0-0.1,0-0.3,0.1-0.4
	c0.1-0.1,0.1-0.2,0.2-0.2c0.1-0.1,0.2-0.1,0.3-0.1c0.1,0,0.2,0,0.4,0c0.2,0,0.4,0,0.6,0.1c0.2,0.1,0.3,0.2,0.5,0.3L62.7,21.3z
	 M57.1,15.2c-0.1-0.3-0.1-0.5-0.1-0.8c0-0.3,0-0.6,0.1-0.8c0.1-0.3,0.2-0.5,0.4-0.7c0.2-0.2,0.4-0.3,0.6-0.4
	c0.2-0.1,0.5-0.2,0.8-0.2c0.2,0,0.5,0,0.7,0.1c0.2,0.1,0.4,0.2,0.6,0.4l0.8-0.6c-0.1-0.1-0.2-0.3-0.4-0.4c-0.2-0.1-0.3-0.2-0.5-0.3
	c-0.2-0.1-0.4-0.1-0.6-0.2c-0.2,0-0.4-0.1-0.6-0.1c-0.4,0-0.8,0.1-1.2,0.2c-0.4,0.1-0.7,0.3-1,0.6c-0.3,0.3-0.5,0.6-0.6,0.9
	c-0.2,0.4-0.2,0.8-0.2,1.2c0,0.4,0.1,0.8,0.2,1.2c0.1,0.4,0.4,0.7,0.6,0.9c0.3,0.3,0.6,0.5,1,0.6c0.4,0.1,0.8,0.2,1.2,0.2
	c0.5,0,0.9-0.1,1.3-0.3c0.4-0.2,0.7-0.4,0.9-0.7l-0.8-0.6c-0.1,0.2-0.3,0.4-0.6,0.5c-0.2,0.1-0.5,0.2-0.8,0.2
	c-0.3,0-0.6-0.1-0.8-0.2c-0.2-0.1-0.4-0.2-0.6-0.4C57.3,15.7,57.2,15.5,57.1,15.2z M56.1,26.5h1v-5.7h-1V26.5z M56.4,34.4l-0.7,0.7
	c0.2,0.3,0.5,0.5,0.9,0.6c0.4,0.1,0.7,0.2,1.1,0.2c0.3,0,0.5,0,0.8-0.1c0.2-0.1,0.5-0.2,0.7-0.3c0.2-0.1,0.3-0.3,0.4-0.6
	c0.1-0.2,0.2-0.5,0.2-0.8c0-0.3-0.1-0.5-0.2-0.7c-0.1-0.2-0.2-0.3-0.4-0.5c-0.2-0.1-0.3-0.2-0.5-0.3c-0.2-0.1-0.4-0.1-0.6-0.2
	c-0.2,0-0.3-0.1-0.4-0.1c-0.1,0-0.2-0.1-0.3-0.2c-0.1-0.1-0.2-0.1-0.2-0.2C57,31.8,57,31.7,57,31.6c0-0.1,0-0.3,0.1-0.4
	c0.1-0.1,0.1-0.2,0.2-0.2c0.1-0.1,0.2-0.1,0.3-0.1c0.1,0,0.2,0,0.4,0c0.2,0,0.4,0,0.6,0.1c0.2,0.1,0.3,0.2,0.5,0.3l0.7-0.7
	c-0.2-0.2-0.5-0.4-0.8-0.5C58.6,30,58.3,30,58,30c-0.3,0-0.5,0-0.8,0.1c-0.2,0.1-0.5,0.2-0.7,0.3c-0.2,0.1-0.4,0.3-0.5,0.5
	c-0.1,0.2-0.2,0.5-0.2,0.7c0,0.3,0,0.5,0.1,0.7c0.1,0.2,0.2,0.3,0.3,0.5c0.1,0.1,0.3,0.2,0.5,0.3c0.2,0.1,0.3,0.1,0.5,0.2
	c0.2,0.1,0.3,0.1,0.5,0.2c0.2,0.1,0.3,0.1,0.4,0.2c0.1,0.1,0.2,0.2,0.3,0.3c0.1,0.1,0.1,0.2,0.1,0.4c0,0.2,0,0.3-0.1,0.4
	c-0.1,0.1-0.1,0.2-0.2,0.3C58.2,34.9,58.1,35,58,35c-0.1,0-0.2,0-0.4,0c-0.2,0-0.5-0.1-0.7-0.2C56.7,34.8,56.5,34.6,56.4,34.4z
	 M65.2,30.1h-4.5V31h1.7v4.8h1V31h1.7V30.1z M68,30.1l-2.5,5.7h1.1l0.5-1.3h2.5l0.5,1.3h1.2l-2.4-5.7H68z M67.5,33.6l0.9-2.3
	l0.9,2.3H67.5z M80.3,20.8h-1v5.7h1v-2.8h0l2.5,2.8h1.4l-2.8-3l2.6-2.6h-1.4l-2.4,2.4h0V20.8z M83.4,30.1h-1v5.7h1v-2.8h0l2.5,2.8
	h1.4l-2.8-3l2.6-2.6h-1.4l-2.4,2.4h0V30.1z M103.3,30.1h-1.8v5.7h1v-2.3h0.8c0.3,0,0.6,0,0.8-0.1c0.3-0.1,0.5-0.2,0.7-0.3
	c0.2-0.1,0.4-0.3,0.5-0.5c0.1-0.2,0.2-0.5,0.2-0.8c0-0.3-0.1-0.5-0.2-0.8c-0.1-0.2-0.2-0.4-0.4-0.5c-0.2-0.1-0.4-0.2-0.7-0.3
	C103.9,30.1,103.6,30.1,103.3,30.1z M103.2,31c0.2,0,0.3,0,0.5,0c0.1,0,0.3,0.1,0.4,0.1c0.1,0.1,0.2,0.1,0.3,0.2
	c0.1,0.1,0.1,0.2,0.1,0.4c0,0.2,0,0.3-0.1,0.4c-0.1,0.1-0.2,0.2-0.3,0.3c-0.1,0.1-0.2,0.1-0.4,0.1c-0.1,0-0.3,0-0.5,0h-0.7V31H103.2
	z M119,30.1l-2.5,5.7h1.1l0.5-1.3h2.5l0.5,1.3h1.2l-2.4-5.7H119z M118.5,33.6l0.9-2.3l0.9,2.3H118.5z M128.8,26.5h1.1l-2.4-5.7h-0.9
	l-2.5,5.7h1.1l0.5-1.3h2.5L128.8,26.5z M127.9,24.3h-1.8L127,22L127.9,24.3z M125.7,30.1h-2v5.7h2c0.4,0,0.7-0.1,1.1-0.2
	c0.4-0.1,0.7-0.3,1-0.5c0.3-0.2,0.5-0.5,0.7-0.9c0.2-0.4,0.3-0.8,0.3-1.3c0-0.5-0.1-1-0.3-1.3c-0.2-0.4-0.4-0.7-0.7-0.9
	c-0.3-0.2-0.6-0.4-1-0.5C126.4,30.2,126,30.1,125.7,30.1z M125.5,31c0.3,0,0.5,0,0.8,0.1c0.3,0.1,0.5,0.2,0.7,0.3
	c0.2,0.1,0.4,0.3,0.5,0.6c0.1,0.3,0.2,0.6,0.2,1c0,0.4-0.1,0.7-0.2,0.9c-0.1,0.3-0.3,0.4-0.5,0.6c-0.2,0.1-0.4,0.3-0.7,0.3
	c-0.3,0.1-0.5,0.1-0.8,0.1h-0.8V31H125.5z M138.2,20.8l-2.5,5.7h1.1l0.5-1.3h2.5l0.5,1.3h1.1l-2.4-5.7H138.2z M137.8,24.3l0.9-2.3
	l0.9,2.3H137.8z"/>
<polygon class="st1" points="20.3,0 17.6,4.7 12.6,1.9 12.6,7.5 7.2,7.5 2.2,16.2 4.9,20.9 0,23.7 4.9,26.6 2.2,31.3 7.2,39.9 
	12.6,39.9 12.6,45.6 17.6,42.8 20.3,47.5 30.3,47.5 33,42.8 37.9,45.6 37.9,39.9 43.3,39.9 48.3,31.3 45.6,26.6 50.5,23.7 
	45.6,20.9 48.3,16.2 43.3,7.5 37.9,7.5 37.9,1.9 33,4.7 30.3,0 "/>
<path class="st2" d="M43.4,23.7c0,10-8.1,18.1-18.1,18.1c-10,0-18.1-8.1-18.1-18.1c0-10,8.1-18.1,18.1-18.1
	C35.3,5.6,43.4,13.7,43.4,23.7"/>
<polygon class="st3" points="42.3,20.2 38.9,18.2 40.9,14.7 36.9,14.7 36.9,10.8 30.7,7.2 27.3,9.2 25.3,5.6 23.2,9.2 19.9,7.2 
	13.7,10.8 13.7,14.7 9.6,14.7 11.6,18.2 8.3,20.2 8.3,27.3 11.6,29.3 9.6,32.8 13.7,32.8 13.7,36.7 19.9,40.3 23.2,38.3 25.3,41.8 
	27.3,38.3 30.7,40.3 36.9,36.7 36.9,32.8 40.9,32.8 38.9,29.3 42.3,27.3 "/>
<path class="st4" d="M31.7,35c-6.2,3.6-14.1,1.5-17.7-4.7c-3.6-6.2-1.5-14.1,4.7-17.7c6.2-3.6,14.1-1.5,17.7,4.7
	C40.1,23.5,37.9,31.4,31.7,35"/>
<path class="st5" d="M34.6,23.7c0,5.1-4.2,9.3-9.3,9.3S16,28.9,16,23.7c0-5.1,4.2-9.3,9.3-9.3S34.6,18.6,34.6,23.7 M35.7,22.3
	l1.4-2.4l-2.6-4.4l-2.8,0v-2.9L29.2,14l-1.4-2.4h-5.1L21.3,14l-2.5-1.5v2.9H16l-2.6,4.4l1.4,2.4l-2.5,1.5l2.5,1.5l-1.4,2.4l2.6,4.4
	h2.8V35l2.5-1.5l1.4,2.4h5.1l1.4-2.4l2.5,1.5v-2.9h2.8l2.6-4.4l-1.4-2.4l2.5-1.5L35.7,22.3z"/>
<path class="st6" d="M28.6,29.5c-3.2,1.8-7.3,0.7-9.1-2.4c-1.8-3.2-0.7-7.3,2.4-9.1c3.2-1.8,7.2-0.7,9.1,2.4
	C32.9,23.6,31.8,27.7,28.6,29.5 M34,21.9l-1.7-1l1-1.8h-2.1v-2L28,15.3l-1.7,1l-1-1.8l-1,1.8l-1.7-1l-3.2,1.8v2l-2.1,0l1,1.8l-1.7,1
	v3.7l1.7,1l-1,1.8h2.1v2l3.2,1.8l1.7-1l1,1.8l1-1.8l1.7,1l3.2-1.8v-2l2.1,0l-1-1.8l1.7-1V21.9z"/>
</svg>
